<svg width="1346" height="990" viewBox="0 0 1346 990" fill="none" xmlns="http://www.w3.org/2000/svg">
<g opacity="0.2">
<path d="M398.381 663.381C424.344 670.338 451.031 654.93 457.987 628.968C464.944 603.005 449.536 576.318 423.574 569.361C397.611 562.404 370.924 577.812 363.967 603.775C357.01 629.738 372.418 656.425 398.381 663.381Z" fill="white"/>
<path d="M431.958 652.202C451.877 640.701 458.702 615.23 447.201 595.311C435.701 575.392 410.23 568.567 390.311 580.067C370.392 591.568 363.567 617.038 375.067 636.958C386.568 656.877 412.038 663.702 431.958 652.202Z" fill="#6EBCFF"/>
<path fill-rule="evenodd" clip-rule="evenodd" d="M421.027 578.629C421.428 578.737 421.686 579.079 421.602 579.393L419.47 587.35C419.386 587.664 418.992 587.831 418.59 587.723C418.188 587.615 417.931 587.274 418.015 586.96L420.147 579.003C420.231 578.689 420.625 578.522 421.027 578.629Z" fill="white"/>
<path fill-rule="evenodd" clip-rule="evenodd" d="M384.039 631.771C384.147 632.173 383.98 632.567 383.666 632.651L375.709 634.783C375.395 634.867 375.053 634.61 374.946 634.208C374.838 633.806 375.005 633.412 375.319 633.328L383.276 631.196C383.59 631.112 383.932 631.37 384.039 631.771Z" fill="white"/>
<path fill-rule="evenodd" clip-rule="evenodd" d="M389.743 582.494C390.103 582.286 390.527 582.346 390.69 582.627L394.808 589.761C394.971 590.043 394.811 590.439 394.45 590.647C394.09 590.855 393.666 590.796 393.504 590.514L389.385 583.38C389.223 583.099 389.383 582.702 389.743 582.494Z" fill="white"/>
<path fill-rule="evenodd" clip-rule="evenodd" d="M445.714 598.661C445.922 599.021 445.862 599.445 445.581 599.608L438.447 603.726C438.165 603.889 437.769 603.728 437.561 603.368C437.353 603.008 437.412 602.584 437.694 602.422L444.828 598.303C445.109 598.141 445.506 598.301 445.714 598.661Z" fill="white"/>
<path fill-rule="evenodd" clip-rule="evenodd" d="M448.72 626.595C448.612 626.997 448.27 627.254 447.956 627.17L440 625.038C439.686 624.954 439.518 624.56 439.626 624.158C439.734 623.757 440.076 623.499 440.389 623.583L448.346 625.715C448.66 625.799 448.827 626.193 448.72 626.595Z" fill="white"/>
<path fill-rule="evenodd" clip-rule="evenodd" d="M432.29 649.573C431.995 649.867 431.571 649.919 431.341 649.69L425.516 643.865C425.286 643.635 425.338 643.21 425.633 642.916C425.927 642.622 426.351 642.57 426.581 642.8L432.406 648.625C432.636 648.854 432.584 649.279 432.29 649.573Z" fill="white"/>
<path fill-rule="evenodd" clip-rule="evenodd" d="M382.155 608.759C382.047 609.161 381.705 609.418 381.391 609.334L373.435 607.202C373.121 607.118 372.953 606.724 373.061 606.323C373.169 605.921 373.51 605.663 373.824 605.747L381.781 607.879C382.095 607.964 382.262 608.357 382.155 608.759Z" fill="white"/>
<path fill-rule="evenodd" clip-rule="evenodd" d="M403.288 644.831C403.69 644.938 403.947 645.28 403.863 645.594L401.731 653.551C401.647 653.865 401.253 654.032 400.851 653.924C400.449 653.817 400.192 653.475 400.276 653.161L402.408 645.204C402.492 644.89 402.886 644.723 403.288 644.831Z" fill="white"/>
<g clip-path="url(#clip0)">
<path fill-rule="evenodd" clip-rule="evenodd" d="M414.252 603.909C407.322 602.052 400.198 606.165 398.341 613.096C396.484 620.027 400.597 627.151 407.527 629.008C414.458 630.865 421.582 626.752 423.439 619.821C425.296 612.89 421.183 605.767 414.252 603.909ZM395.552 612.349C397.822 603.878 406.529 598.851 415 601.121C423.471 603.391 428.497 612.098 426.228 620.568C423.958 629.039 415.251 634.066 406.78 631.796C398.309 629.527 393.282 620.82 395.552 612.349Z" fill="white"/>
<path fill-rule="evenodd" clip-rule="evenodd" d="M413.505 606.698C414.275 606.905 414.732 607.696 414.526 608.466L412.515 615.97L416.678 619.662C417.274 620.191 417.329 621.103 416.8 621.7C416.271 622.296 415.359 622.351 414.762 621.822L409.932 617.539C409.523 617.176 409.354 616.613 409.496 616.085L411.737 607.719C411.944 606.949 412.735 606.492 413.505 606.698Z" fill="white"/>
</g>
</g>
<g opacity="0.2">
<path d="M1282.3 452.533C1293.64 448.984 1299.95 436.916 1296.4 425.58C1292.86 414.243 1280.79 407.93 1269.45 411.479C1258.11 415.028 1251.8 427.095 1255.35 438.432C1258.9 449.769 1270.97 456.082 1282.3 452.533Z" fill="white"/>
<path d="M1292.19 440.412C1296.9 431.405 1293.42 420.283 1284.41 415.571C1275.41 410.859 1264.28 414.341 1259.57 423.348C1254.86 432.355 1258.34 443.477 1267.35 448.189C1276.36 452.901 1287.48 449.419 1292.19 440.412Z" fill="#6EBCFF"/>
<path fill-rule="evenodd" clip-rule="evenodd" d="M1270.69 415.541C1270.87 415.486 1271.05 415.553 1271.09 415.69L1272.18 419.164C1272.22 419.301 1272.11 419.457 1271.94 419.512C1271.76 419.567 1271.59 419.5 1271.54 419.363L1270.45 415.889C1270.41 415.751 1270.52 415.596 1270.69 415.541Z" fill="white"/>
<path fill-rule="evenodd" clip-rule="evenodd" d="M1269.47 444.13C1269.6 444.254 1269.64 444.441 1269.54 444.547L1267.07 447.226C1266.98 447.331 1266.79 447.316 1266.65 447.192C1266.52 447.067 1266.49 446.881 1266.58 446.775L1269.05 444.096C1269.15 443.99 1269.33 444.005 1269.47 444.13Z" fill="white"/>
<path fill-rule="evenodd" clip-rule="evenodd" d="M1259.93 424.388C1260.02 424.225 1260.19 424.147 1260.32 424.214L1263.54 425.901C1263.67 425.968 1263.71 426.154 1263.62 426.317C1263.54 426.48 1263.36 426.558 1263.24 426.491L1260.01 424.804C1259.88 424.737 1259.85 424.551 1259.93 424.388Z" fill="white"/>
<path fill-rule="evenodd" clip-rule="evenodd" d="M1284.65 417.174C1284.81 417.259 1284.89 417.431 1284.82 417.558L1283.14 420.784C1283.07 420.911 1282.88 420.946 1282.72 420.86C1282.56 420.775 1282.48 420.603 1282.55 420.476L1284.23 417.25C1284.3 417.122 1284.49 417.088 1284.65 417.174Z" fill="white"/>
<path fill-rule="evenodd" clip-rule="evenodd" d="M1292.38 426.888C1292.44 427.063 1292.37 427.24 1292.24 427.283L1288.76 428.371C1288.62 428.414 1288.47 428.306 1288.41 428.131C1288.36 427.955 1288.42 427.778 1288.56 427.736L1292.04 426.648C1292.17 426.605 1292.33 426.712 1292.38 426.888Z" fill="white"/>
<path fill-rule="evenodd" clip-rule="evenodd" d="M1291.69 439.353C1291.65 439.532 1291.5 439.652 1291.36 439.621L1287.81 438.826C1287.67 438.794 1287.59 438.623 1287.63 438.444C1287.67 438.265 1287.82 438.145 1287.96 438.176L1291.51 438.971C1291.65 439.003 1291.73 439.173 1291.69 439.353Z" fill="white"/>
<path fill-rule="evenodd" clip-rule="evenodd" d="M1263.32 435.987C1263.37 436.163 1263.31 436.34 1263.17 436.383L1259.7 437.47C1259.56 437.513 1259.4 437.406 1259.35 437.23C1259.29 437.055 1259.36 436.878 1259.5 436.835L1262.97 435.747C1263.11 435.704 1263.26 435.812 1263.32 435.987Z" fill="white"/>
<path fill-rule="evenodd" clip-rule="evenodd" d="M1279.74 444.448C1279.92 444.393 1280.1 444.459 1280.14 444.596L1281.23 448.071C1281.27 448.208 1281.16 448.363 1280.99 448.418C1280.81 448.473 1280.63 448.407 1280.59 448.27L1279.5 444.795C1279.46 444.658 1279.57 444.502 1279.74 444.448Z" fill="white"/>
<g clip-path="url(#clip1)">
<path fill-rule="evenodd" clip-rule="evenodd" d="M1274.15 426.579C1271.12 427.527 1269.44 430.748 1270.39 433.774C1271.33 436.801 1274.55 438.486 1277.58 437.539C1280.61 436.591 1282.29 433.37 1281.35 430.344C1280.4 427.317 1277.18 425.632 1274.15 426.579ZM1269.17 434.156C1268.01 430.457 1270.07 426.52 1273.77 425.362C1277.47 424.204 1281.4 426.264 1282.56 429.962C1283.72 433.661 1281.66 437.598 1277.96 438.756C1274.26 439.914 1270.33 437.854 1269.17 434.156Z" fill="white"/>
<path fill-rule="evenodd" clip-rule="evenodd" d="M1274.53 427.797C1274.87 427.692 1275.23 427.879 1275.33 428.215L1276.36 431.492L1278.78 431.884C1279.13 431.941 1279.37 432.268 1279.31 432.616C1279.26 432.964 1278.93 433.2 1278.58 433.144L1275.76 432.689C1275.53 432.65 1275.33 432.48 1275.26 432.25L1274.11 428.597C1274.01 428.26 1274.2 427.902 1274.53 427.797Z" fill="white"/>
</g>
</g>
<g opacity="0.2">
<path d="M1020.08 252.707C1059.51 275.476 1109.94 261.964 1132.71 222.528C1155.47 183.093 1141.96 132.667 1102.53 109.899C1063.09 87.1304 1012.67 100.642 989.898 140.078C967.13 179.513 980.641 229.939 1020.08 252.707Z" fill="white"/>
<path d="M1079.56 249.453C1117.2 239.368 1139.54 200.68 1129.45 163.041C1119.37 125.402 1080.68 103.066 1043.04 113.151C1005.4 123.236 983.066 161.924 993.151 199.563C1003.24 237.202 1041.92 259.538 1079.56 249.453Z" fill="#6AD2FF"/>
<g opacity="0.75">
<g opacity="0.75">
<path d="M1004.66 195.088L1008.75 194.096C1014.71 218.661 1037.39 236.016 1062.7 235.361C1088 234.706 1109.77 216.204 1114.44 191.363L1118.58 192.142C1116.15 205.036 1109.31 216.879 1099.31 225.491C1094.33 229.785 1088.71 233.175 1082.62 235.57C1076.31 238.048 1069.64 239.395 1062.81 239.573C1055.97 239.75 1049.25 238.749 1042.82 236.6C1036.61 234.524 1030.82 231.427 1025.62 227.398C1015.19 219.314 1007.75 207.839 1004.66 195.088ZM1004.02 170.462C1006.45 157.568 1013.29 145.725 1023.29 137.113C1028.27 132.819 1033.89 129.429 1039.99 127.034C1046.29 124.555 1052.96 123.208 1059.8 123.031C1066.63 122.855 1073.36 123.855 1079.79 126.004C1086 128.08 1091.78 131.177 1096.98 135.208C1107.41 143.292 1114.86 154.765 1117.95 167.517L1113.85 168.51C1107.9 143.945 1085.21 126.589 1059.9 127.244C1034.6 127.899 1012.84 146.403 1008.16 171.242L1004.02 170.462Z" fill="white"/>
</g>
<g opacity="0.75">
<path d="M1116.67 175.364L1122.57 166.53L1107.83 169.465L1116.67 175.364Z" fill="white"/>
<path opacity="0.75" d="M1005.94 187.241L1000.04 196.074L1014.77 193.14L1005.94 187.241Z" fill="white"/>
</g>
</g>
<path d="M1039.75 205.243L1030.27 169.868L1035.15 168.56L1043.32 199.05L1109.83 181.228L1111.14 186.114L1039.75 205.243Z" fill="white"/>
</g>
<g opacity="0.2">
<path d="M85.6796 413.245C104.712 402.256 111.233 377.919 100.245 358.887C89.2563 339.854 64.9194 333.333 45.8867 344.322C26.8541 355.31 20.333 379.647 31.3215 398.68C42.31 417.712 66.647 424.233 85.6796 413.245Z" fill="white"/>
<path d="M98.6742 387.596C103.542 369.431 92.7614 350.759 74.5959 345.892C56.4305 341.024 37.7586 351.804 32.8912 369.97C28.0238 388.135 38.804 406.807 56.9694 411.675C75.1349 416.542 93.8067 405.762 98.6742 387.596Z" fill="#6AD2FF"/>
<g opacity="0.75">
<g opacity="0.75">
<path d="M57.8758 405.785L58.4493 403.834C70.1532 407.274 82.8823 401.979 88.7149 391.244C94.5476 380.509 92.0654 366.949 82.8112 359L84.1361 357.458C88.9396 361.584 92.2382 367.302 93.4253 373.558C94.0173 376.677 94.0788 379.844 93.6086 382.969C93.1224 386.204 92.0767 389.315 90.5013 392.215C88.9258 395.115 86.8845 397.684 84.435 399.853C82.0682 401.948 79.3782 403.619 76.4395 404.819C70.5443 407.227 63.9516 407.57 57.8758 405.785ZM47.4293 400.108C42.6258 395.982 39.3272 390.264 38.1402 384.008C37.5481 380.889 37.4867 377.722 37.9568 374.597C38.443 371.362 39.4887 368.251 41.0642 365.351C42.6403 362.451 44.681 359.882 47.1305 357.713C49.4972 355.618 52.188 353.947 55.127 352.747C61.0222 350.339 67.6145 349.996 73.69 351.781L73.1166 353.733C61.4126 350.293 48.6836 355.588 42.8509 366.323C37.0182 377.057 39.5011 390.617 48.7547 398.566L47.4293 400.108Z" fill="white"/>
</g>
<g opacity="0.75">
<path d="M76.6608 354.21L74.3922 349.612L72.0636 356.478L76.6608 354.21Z" fill="white"/>
<path opacity="0.75" d="M54.9054 403.356L57.1736 407.953L59.5029 401.087L54.9054 403.356Z" fill="white"/>
</g>
</g>
<path d="M70.5878 393.569L53.5148 388.995L54.1469 386.638L68.8623 390.581L77.4636 358.48L79.8214 359.112L70.5878 393.569Z" fill="white"/>
</g>
<g opacity="0.2">
<path d="M338.223 92.7756C359.586 80.4415 366.906 53.1243 354.572 31.761C342.238 10.3976 314.92 3.07802 293.557 15.4121C272.194 27.7463 264.874 55.0635 277.208 76.4268C289.542 97.7901 316.86 105.11 338.223 92.7756Z" fill="white"/>
<path d="M352.758 63.7306C358.221 43.3406 346.121 22.3823 325.731 16.9188C305.341 11.4554 284.383 23.5557 278.919 43.9456C273.456 64.3356 285.556 85.2939 305.946 90.7574C326.336 96.2208 347.294 84.1205 352.758 63.7306Z" fill="#71B1FF"/>
<g clip-path="url(#clip2)">
<path fill-rule="evenodd" clip-rule="evenodd" d="M303.128 34.1611C304.013 33.6496 305.146 33.9531 305.658 34.8391L326.032 70.1286C326.544 71.0145 326.24 72.1473 325.354 72.6587C324.468 73.1702 323.335 72.8667 322.824 71.9808L302.45 36.6913C301.938 35.8054 302.242 34.6726 303.128 34.1611Z" fill="white"/>
<path fill-rule="evenodd" clip-rule="evenodd" d="M298.938 47.9537C299.51 45.8184 300.907 43.9979 302.822 42.8926L314.852 35.9468C315.738 35.4353 316.871 35.7389 317.382 36.6248C317.894 37.5107 317.59 38.6435 316.705 39.155L304.674 46.1008C303.61 46.7148 302.834 47.7262 302.517 48.9125C302.199 50.0987 302.365 51.3627 302.979 52.4262C303.593 53.4898 304.605 54.2659 305.791 54.5837C306.977 54.9016 308.241 54.7352 309.305 54.1211L317.325 49.4906C319.239 48.3853 321.514 48.0858 323.65 48.6579C325.785 49.23 327.605 50.627 328.711 52.5414C329.816 54.4558 330.116 56.7309 329.543 58.8661C328.971 61.0014 327.574 62.8219 325.66 63.9272L312.025 71.7991C311.139 72.3106 310.007 72.0071 309.495 71.1212C308.984 70.2353 309.287 69.1025 310.173 68.591L323.808 60.7191C324.871 60.105 325.647 59.0936 325.965 57.9074C326.283 56.7211 326.117 55.4572 325.503 54.3936C324.889 53.33 323.877 52.554 322.691 52.2361C321.505 51.9183 320.241 52.0847 319.177 52.6987L311.157 57.3293C309.242 58.4345 306.967 58.7341 304.832 58.1619C302.697 57.5898 300.876 56.1929 299.771 54.2784C298.666 52.364 298.366 50.0889 298.938 47.9537Z" fill="white"/>
</g>
</g>
<g opacity="0.2">
<path d="M97.7146 971.685C126.07 955.314 135.785 919.056 119.414 890.701C103.043 862.346 66.7857 852.631 38.4307 869.002C10.0756 885.373 0.360449 921.63 16.7312 949.985C33.102 978.34 69.3595 988.055 97.7146 971.685Z" fill="white"/>
<path d="M117.006 933.134C124.258 906.071 108.197 878.253 81.1343 871.002C54.0712 863.75 26.2537 879.811 19.0021 906.874C11.7506 933.937 27.811 961.754 54.8741 969.006C81.9372 976.257 109.755 960.197 117.006 933.134Z" fill="#71B1FF"/>
<g clip-path="url(#clip3)">
<path fill-rule="evenodd" clip-rule="evenodd" d="M51.1334 893.887C52.3092 893.208 53.8128 893.611 54.4916 894.787L81.5341 941.626C82.213 942.802 81.8101 944.305 80.6343 944.984C79.4584 945.663 77.9549 945.26 77.276 944.084L50.2335 897.245C49.5547 896.069 49.9575 894.566 51.1334 893.887Z" fill="white"/>
<path fill-rule="evenodd" clip-rule="evenodd" d="M45.5731 912.194C46.3325 909.36 48.1866 906.943 50.7276 905.476L66.6954 896.257C67.8713 895.578 69.3748 895.981 70.0537 897.157C70.7325 898.333 70.3297 899.836 69.1538 900.515L53.186 909.734C51.7744 910.549 50.7443 911.892 50.3224 913.466C49.9005 915.041 50.1214 916.718 50.9364 918.13C51.7514 919.542 53.0938 920.572 54.6683 920.994C56.2428 921.415 57.9204 921.195 59.332 920.38L69.9772 914.233C72.5182 912.766 75.5379 912.369 78.3719 913.128C81.206 913.888 83.6223 915.742 85.0893 918.283C86.5564 920.824 86.9539 923.843 86.1945 926.677C85.4351 929.512 83.581 931.928 81.0401 933.395L62.9432 943.843C61.7674 944.522 60.2638 944.119 59.5849 942.943C58.9061 941.767 59.3089 940.264 60.4848 939.585L78.5817 929.137C79.9933 928.322 81.0234 926.979 81.4453 925.405C81.8671 923.83 81.6463 922.153 80.8313 920.741C80.0162 919.33 78.6738 918.299 77.0994 917.878C75.5249 917.456 73.8473 917.677 72.4356 918.492L61.7904 924.638C59.2495 926.105 56.2298 926.502 53.3957 925.743C50.5617 924.983 48.1453 923.129 46.6783 920.588C45.2113 918.047 44.8137 915.028 45.5731 912.194Z" fill="white"/>
</g>
</g>
<g opacity="0.2">
<path d="M924.886 963.152C927.59 973.241 937.96 979.228 948.049 976.525C958.138 973.821 964.125 963.451 961.422 953.362C958.719 943.273 948.348 937.286 938.259 939.989C928.17 942.693 922.183 953.063 924.886 963.152Z" fill="white"/>
<path d="M935.173 972.279C942.913 976.748 952.811 974.096 957.28 966.356C961.749 958.615 959.097 948.718 951.356 944.249C943.616 939.78 933.718 942.432 929.249 950.172C924.78 957.913 927.432 967.81 935.173 972.279Z" fill="#71B1FF"/>
<g clip-path="url(#clip4)">
<path fill-rule="evenodd" clip-rule="evenodd" d="M952.705 955.222C952.817 955.64 952.569 956.07 952.15 956.182L935.485 960.648C935.066 960.76 934.636 960.512 934.524 960.093C934.412 959.675 934.66 959.245 935.079 959.133L951.744 954.667C952.163 954.555 952.593 954.803 952.705 955.222Z" fill="white"/>
<path fill-rule="evenodd" clip-rule="evenodd" d="M947.523 951.997C948.334 952.465 948.925 953.236 949.167 954.14L950.69 959.821C950.802 960.24 950.554 960.67 950.135 960.782C949.717 960.894 949.287 960.646 949.175 960.227L947.652 954.546C947.518 954.043 947.189 953.615 946.739 953.355C946.288 953.095 945.753 953.025 945.251 953.159C944.749 953.294 944.32 953.623 944.06 954.073C943.8 954.523 943.73 955.058 943.865 955.561L944.879 959.348C945.122 960.252 944.995 961.216 944.527 962.026C944.059 962.837 943.288 963.428 942.384 963.671C941.48 963.913 940.517 963.786 939.706 963.318C938.895 962.85 938.304 962.079 938.062 961.175L936.336 954.736C936.224 954.318 936.473 953.888 936.891 953.776C937.309 953.664 937.739 953.912 937.851 954.33L939.577 960.769C939.711 961.271 940.04 961.7 940.49 961.96C940.941 962.22 941.476 962.29 941.978 962.156C942.48 962.021 942.909 961.692 943.169 961.242C943.429 960.792 943.499 960.257 943.364 959.754L942.35 955.967C942.107 955.063 942.234 954.099 942.702 953.289C943.17 952.478 943.941 951.887 944.845 951.644C945.749 951.402 946.712 951.529 947.523 951.997Z" fill="white"/>
</g>
</g>
<g opacity="0.2">
<path d="M1232.69 837.656C1261.04 821.289 1270.75 785.038 1254.39 756.688C1238.02 728.339 1201.77 718.625 1173.42 734.993C1145.07 751.361 1135.35 787.611 1151.72 815.961C1168.09 844.311 1204.34 854.024 1232.69 837.656Z" fill="white"/>
<path d="M1251.98 799.113C1259.23 772.055 1243.17 744.243 1216.11 736.992C1189.06 729.742 1161.24 745.8 1153.99 772.858C1146.74 799.916 1162.8 827.728 1189.86 834.978C1216.92 842.228 1244.73 826.171 1251.98 799.113Z" fill="#71B1FF"/>
<g clip-path="url(#clip5)">
<path fill-rule="evenodd" clip-rule="evenodd" d="M1173.47 774.513C1173.97 772.644 1175.19 771.049 1176.87 770.082L1193.72 760.35C1194.28 760.027 1194.94 759.94 1195.57 760.107L1215.51 765.45C1216.13 765.617 1216.66 766.025 1216.98 766.583L1231.58 791.867C1232.55 793.543 1232.81 795.535 1232.31 797.405C1231.81 799.275 1230.59 800.869 1228.91 801.837L1203.63 816.434C1201.95 817.402 1199.96 817.664 1198.09 817.163C1196.22 816.662 1194.63 815.439 1193.66 813.763L1174.19 780.052C1173.23 778.375 1172.96 776.383 1173.47 774.513ZM1179.3 774.295C1178.74 774.618 1178.33 775.149 1178.17 775.773C1178 776.396 1178.09 777.06 1178.41 777.619L1197.87 811.33C1198.19 811.889 1198.73 812.296 1199.35 812.463C1199.97 812.63 1200.64 812.543 1201.19 812.22L1226.48 797.623C1227.04 797.3 1227.44 796.769 1227.61 796.146C1227.78 795.522 1227.69 794.858 1227.37 794.3L1213.27 769.889L1195.28 765.068L1179.3 774.295Z" fill="white"/>
<path fill-rule="evenodd" clip-rule="evenodd" d="M1193.72 760.35C1194.88 759.678 1196.37 760.077 1197.04 761.241L1203.13 771.775L1213.66 765.693C1214.83 765.021 1216.31 765.42 1216.98 766.583C1217.66 767.747 1217.26 769.235 1216.09 769.907L1203.45 777.205C1202.29 777.877 1200.8 777.479 1200.13 776.315L1192.83 763.673C1192.16 762.51 1192.56 761.022 1193.72 760.35Z" fill="white"/>
<path fill-rule="evenodd" clip-rule="evenodd" d="M1193.57 794.148C1192.9 792.985 1193.3 791.497 1194.46 790.825L1211.32 781.093C1212.48 780.422 1213.97 780.82 1214.64 781.984C1215.31 783.148 1214.91 784.635 1213.75 785.307L1196.89 795.039C1195.73 795.711 1194.24 795.312 1193.57 794.148Z" fill="white"/>
<path fill-rule="evenodd" clip-rule="evenodd" d="M1198.44 802.576C1197.76 801.412 1198.16 799.925 1199.33 799.253L1216.18 789.521C1217.35 788.849 1218.83 789.248 1219.51 790.412C1220.18 791.575 1219.78 793.063 1218.61 793.735L1201.76 803.467C1200.6 804.138 1199.11 803.74 1198.44 802.576Z" fill="white"/>
<path fill-rule="evenodd" clip-rule="evenodd" d="M1188.7 785.721C1188.03 784.557 1188.43 783.069 1189.59 782.397L1193.81 779.964C1194.97 779.292 1196.46 779.691 1197.13 780.855C1197.8 782.018 1197.41 783.506 1196.24 784.178L1192.03 786.611C1190.86 787.283 1189.38 786.884 1188.7 785.721Z" fill="white"/>
</g>
</g>
<g opacity="0.2">
<path d="M1339.89 81.0158C1340.46 69.36 1331.48 59.4458 1319.82 58.8718C1308.17 58.2977 1298.25 67.2813 1297.68 78.9371C1297.11 90.593 1306.09 100.507 1317.75 101.081C1329.4 101.655 1339.32 92.6717 1339.89 81.0158Z" fill="white"/>
<path d="M1332.07 67.7901C1325.36 60.3899 1313.93 59.8268 1306.53 66.5323C1299.13 73.2377 1298.57 84.6726 1305.27 92.0727C1311.98 99.4729 1323.41 100.036 1330.81 93.3305C1338.21 86.6251 1338.77 75.1902 1332.07 67.7901Z" fill="#71B1FF"/>
<g clip-path="url(#clip6)">
<path fill-rule="evenodd" clip-rule="evenodd" d="M1309.53 86.5589C1309.07 86.0475 1308.82 85.373 1308.86 84.6838L1309.2 77.7537C1309.21 77.524 1309.31 77.3081 1309.48 77.1537L1314.94 72.2121C1315.11 72.0577 1315.33 71.9772 1315.56 71.9886L1325.96 72.5005C1326.65 72.5344 1327.29 72.8408 1327.76 73.3521C1328.22 73.8635 1328.46 74.538 1328.43 75.2272L1327.92 85.6223C1327.88 86.3115 1327.58 86.9591 1327.06 87.4224C1326.55 87.8858 1325.88 88.127 1325.19 88.0931L1311.33 87.4105C1310.64 87.3766 1309.99 87.0702 1309.53 86.5589ZM1310.59 84.7691C1310.58 84.9988 1310.66 85.2237 1310.81 85.3941C1310.97 85.5646 1311.18 85.6667 1311.41 85.678L1325.27 86.3606C1325.5 86.3719 1325.73 86.2915 1325.9 86.137C1326.07 85.9826 1326.17 85.7667 1326.18 85.537L1326.7 75.1419C1326.71 74.9122 1326.63 74.6873 1326.47 74.5169C1326.32 74.3464 1326.1 74.2443 1325.87 74.233L1315.84 73.7387L1310.91 78.1979L1310.59 84.7691Z" fill="white"/>
<path fill-rule="evenodd" clip-rule="evenodd" d="M1309.2 77.7537C1309.22 77.2753 1309.63 76.9066 1310.11 76.9301L1314.44 77.1434L1314.65 72.8122C1314.68 72.3337 1315.08 71.965 1315.56 71.9886C1316.04 72.0121 1316.41 72.4191 1316.39 72.8975L1316.13 78.095C1316.11 78.5734 1315.7 78.9422 1315.22 78.9186L1310.02 78.6626C1309.55 78.6391 1309.18 78.2321 1309.2 77.7537Z" fill="white"/>
<path fill-rule="evenodd" clip-rule="evenodd" d="M1319.3 84.3294C1318.82 84.3059 1318.45 83.8989 1318.47 83.4205L1318.81 76.4905C1318.84 76.0121 1319.24 75.6433 1319.72 75.6669C1320.2 75.6904 1320.57 76.0974 1320.55 76.5758L1320.21 83.5058C1320.18 83.9843 1319.77 84.353 1319.3 84.3294Z" fill="white"/>
<path fill-rule="evenodd" clip-rule="evenodd" d="M1322.76 84.5001C1322.28 84.4765 1321.91 84.0696 1321.94 83.5912L1322.28 76.6611C1322.3 76.1827 1322.71 75.814 1323.19 75.8375C1323.67 75.8611 1324.04 76.268 1324.01 76.7464L1323.67 83.6765C1323.65 84.1549 1323.24 84.5236 1322.76 84.5001Z" fill="white"/>
<path fill-rule="evenodd" clip-rule="evenodd" d="M1315.83 84.1588C1315.35 84.1352 1314.98 83.7283 1315.01 83.2499L1315.09 81.5174C1315.12 81.039 1315.52 80.6702 1316 80.6938C1316.48 80.7173 1316.85 81.1243 1316.83 81.6027L1316.74 83.3352C1316.72 83.8136 1316.31 84.1824 1315.83 84.1588Z" fill="white"/>
</g>
</g>
<defs>
<clipPath id="clip0">
<rect width="34.6448" height="34.6448" fill="white" transform="translate(398.641 595.243) rotate(15)"/>
</clipPath>
<clipPath id="clip1">
<rect width="15.3114" height="15.3114" fill="white" transform="translate(1266.27 427.04) rotate(-17.3835)"/>
</clipPath>
<clipPath id="clip2">
<rect width="44.4533" height="44.4533" fill="white" transform="translate(283.879 45.2745) rotate(-30)"/>
</clipPath>
<clipPath id="clip3">
<rect width="59.0018" height="59.0018" fill="white" transform="translate(25.5849 908.637) rotate(-30)"/>
</clipPath>
<clipPath id="clip4">
<rect width="18.8222" height="18.8222" fill="white" transform="translate(950.269 946.131) rotate(75)"/>
</clipPath>
<clipPath id="clip5">
<rect width="58.3891" height="58.3891" fill="white" transform="translate(1163.01 775.273) rotate(-30)"/>
</clipPath>
<clipPath id="clip6">
<rect width="20.8153" height="20.8153" fill="white" transform="translate(1307.74 89.8386) rotate(-87.1806)"/>
</clipPath>
</defs>
</svg>
