<?xml version="1.0" encoding="UTF-8"?>
<svg xmlns="http://www.w3.org/2000/svg" width="152" height="40" viewBox="0 0 152 40" fill="none"> <path d="M66.7285 10H62.5195V22.5781H62.3438L53.7109 10H50V30H54.2285V17.4121H54.375L63.0762 30H66.7285V10Z" fill="#343A40"/> <path d="M76.98 30.293C80.6909 30.293 83.1909 28.4863 83.7769 25.7031L79.9292 25.4492C79.5093 26.5918 78.4351 27.1875 77.0483 27.1875C74.9683 27.1875 73.6499 25.8105 73.6499 23.5742V23.5645H83.8647V22.4219C83.8647 17.3242 80.7788 14.8047 76.814 14.8047C72.3999 14.8047 69.5386 17.9395 69.5386 22.5684C69.5386 27.3242 72.3608 30.293 76.98 30.293ZM73.6499 20.9863C73.7378 19.2773 75.0366 17.9102 76.8823 17.9102C78.689 17.9102 79.939 19.1992 79.9487 20.9863H73.6499Z" fill="#343A40"/> <path d="M89.4312 30H93.8257L96.4038 20.5664H96.5894L99.1675 30H103.572L107.644 15H103.445L101.16 25.0195H101.033L98.5718 15H94.4409L92.019 25.0781H91.8823L89.5581 15H85.3491L89.4312 30Z" fill="#343A40"/> <path d="M117.842 15H115.02V11.4063H110.859V15H108.809V18.125H110.859V25.9375C110.84 28.877 112.842 30.332 115.859 30.2051C116.934 30.166 117.695 29.9512 118.115 29.8145L117.461 26.7188C117.256 26.7578 116.816 26.8555 116.426 26.8555C115.596 26.8555 115.02 26.543 115.02 25.3906V18.125H117.842V15Z" fill="#343A40"/> <path d="M127.168 30.293C131.719 30.293 134.551 27.1777 134.551 22.5586C134.551 17.9102 131.719 14.8047 127.168 14.8047C122.617 14.8047 119.785 17.9102 119.785 22.5586C119.785 27.1777 122.617 30.293 127.168 30.293ZM127.188 27.0703C125.088 27.0703 124.014 25.1465 124.014 22.5293C124.014 19.9121 125.088 17.9785 127.188 17.9785C129.248 17.9785 130.322 19.9121 130.322 22.5293C130.322 25.1465 129.248 27.0703 127.188 27.0703Z" fill="#343A40"/> <path d="M141.416 21.3281C141.426 19.3945 142.578 18.2617 144.258 18.2617C145.928 18.2617 146.934 19.3555 146.924 21.1914V30H151.084V20.4492C151.084 16.9531 149.033 14.8047 145.908 14.8047C143.682 14.8047 142.07 15.8984 141.396 17.6465H141.221V15H137.256V30H141.416V21.3281Z" fill="#343A40"/> <path d="M26.9 12.9L0.682843 39.8799C0.430857 40.1365 0 39.9547 0 39.5918V13.2489C0 13.1408 0.0421436 13.0372 0.117158 12.9608L12.7274 0.119306C12.8796 -0.0356199 13.1248 -0.0402427 13.2825 0.108843L26.9 12.9Z" fill="url(#paint0_linear)"/> <path d="M13.1001 27.1L39.3173 0.120122C39.5692 -0.136484 40.0001 0.0452548 40.0001 0.408151V26.7511C40.0001 26.8592 39.958 26.9628 39.8829 27.0392L27.2727 39.8807C27.1205 40.0356 26.8753 40.0402 26.7176 39.8912L13.1001 27.1Z" fill="url(#paint1_linear)"/> <defs> <linearGradient id="paint0_linear" x1="27" y1="-0.158251" x2="-0.490571" y2="26.8373" gradientUnits="userSpaceOnUse"> <stop stop-color="#118EE0"/> <stop offset="1" stop-color="#06D7FE"/> </linearGradient> <linearGradient id="paint1_linear" x1="40.0001" y1="12.6631" x2="12.5095" y2="39.6587" gradientUnits="userSpaceOnUse"> <stop stop-color="#017EFF"/> <stop offset="1" stop-color="#1F3BCB"/> </linearGradient> </defs> </svg>