<svg id="moex-background" xmlns="http://www.w3.org/2000/svg" width="428" height="332" viewBox="0 0 428 332" fill="none">
<path d="M35.7325 234.991C29.6182 215.704 104.423 174.348 202.92 142.683C301.417 111.019 386.253 100.943 392.367 120.23" stroke="#4A2A69" stroke-width="0.445833" stroke-miterlimit="10"/>
<path d="M117.034 288.341H330.747C336.002 288.341 340.301 284.023 340.301 278.745V127.906C340.301 122.628 336.002 118.311 330.747 118.311H117.034C111.78 118.311 107.48 122.628 107.48 127.906V278.745C107.48 284.023 111.78 288.341 117.034 288.341Z" stroke="#4A2A69" stroke-width="0.445833" stroke-miterlimit="10"/>
<path d="M316.415 278.745H102.702C97.4475 278.745 93.1484 274.427 93.1484 269.15V118.31C93.1484 113.033 97.4475 108.715 102.702 108.715H316.415C321.67 108.715 325.969 113.033 325.969 118.31V269.15C325.969 274.427 321.67 278.745 316.415 278.745Z" fill="url(#paint0_linear)"/>
<path d="M330.743 124.74H98.3047" stroke="#4A2A69" stroke-width="0.445833" stroke-miterlimit="10"/>
<path d="M106.045 118.79C107.364 118.79 108.433 117.716 108.433 116.391C108.433 115.066 107.364 113.992 106.045 113.992C104.726 113.992 103.656 115.066 103.656 116.391C103.656 117.716 104.726 118.79 106.045 118.79Z" stroke="#4A2A69" stroke-width="0.445833" stroke-miterlimit="10"/>
<path d="M114.357 118.79C115.676 118.79 116.746 117.716 116.746 116.391C116.746 115.066 115.676 113.992 114.357 113.992C113.038 113.992 111.969 115.066 111.969 116.391C111.969 117.716 113.038 118.79 114.357 118.79Z" stroke="#4A2A69" stroke-width="0.445833" stroke-miterlimit="10"/>
<path d="M122.67 118.79C123.989 118.79 125.058 117.716 125.058 116.391C125.058 115.066 123.989 113.992 122.67 113.992C121.351 113.992 120.281 115.066 120.281 116.391C120.281 117.716 121.351 118.79 122.67 118.79Z" stroke="#4A2A69" stroke-width="0.445833" stroke-miterlimit="10"/>
<path d="M294.824 183.368C306.01 183.368 315.077 174.26 315.077 163.026C315.077 151.791 306.01 142.684 294.824 142.684C283.638 142.684 274.57 151.791 274.57 163.026C274.57 174.26 283.638 183.368 294.824 183.368Z" fill="white"/>
<path d="M183.239 155.639C168.908 185.672 165.66 238.927 165.66 238.927L192.124 246.699C192.124 246.699 214.766 204.863 221.931 166.961L183.239 155.639Z" fill="#FFC0A8"/>
<path d="M183.243 155.639L221.935 166.961C219.356 180.491 214.866 194.404 210.089 206.878C200.344 205.247 184.294 201.601 171.684 193.828C174.359 180.587 178.084 166.577 183.243 155.639Z" fill="#4F2D70"/>
<path d="M178.941 256.197C186.539 256.197 192.698 250.011 192.698 242.38C192.698 234.749 186.539 228.562 178.941 228.562C171.343 228.562 165.184 234.749 165.184 242.38C165.184 250.011 171.343 256.197 178.941 256.197Z" fill="white"/>
<path d="M202.062 183.272C213.248 183.272 222.315 174.165 222.315 162.93C222.315 151.695 213.248 142.588 202.062 142.588C190.876 142.588 181.808 151.695 181.808 162.93C181.808 174.165 190.876 183.272 202.062 183.272Z" fill="white"/>
<path d="M144.641 162.354L133.559 167.919C133.559 167.919 151.901 233.071 166.518 248.04L191.167 235.758C187.918 211.866 144.641 162.354 144.641 162.354Z" fill="#FFC0A8"/>
<path d="M179.414 208.987C174.351 200.639 168.332 192.195 162.695 184.711L179.414 208.987Z" fill="#FFC0A8"/>
<path d="M179.414 208.987C174.351 200.639 168.332 192.195 162.695 184.711" stroke="#AD6666" stroke-width="0.445833" stroke-miterlimit="10"/>
<path d="M178.937 256.195C186.535 256.195 192.694 250.009 192.694 242.378C192.694 234.747 186.535 228.561 178.937 228.561C171.339 228.561 165.18 234.747 165.18 242.378C165.18 250.009 171.339 256.195 178.937 256.195Z" fill="#FFC0A8"/>
<path d="M202.062 183.27C213.248 183.27 222.316 174.163 222.316 162.928C222.316 151.693 213.248 142.586 202.062 142.586C190.876 142.586 181.809 151.693 181.809 162.928C181.809 174.163 190.876 183.27 202.062 183.27Z" fill="#4F2D70"/>
<path d="M301.512 142.779L266.642 133.951H230.243L197.76 143.067L189.258 168.686L197.378 226.355L196.232 278.362H289.475L291.003 232.016L309.633 172.429L301.512 142.779Z" fill="#4F2D70"/>
<path d="M230.531 134.335L235.307 97.3926H266.452V134.335C253.65 163.409 229.384 162.833 230.531 134.335Z" fill="#FFC0A8"/>
<path d="M249.828 142.395L253.267 146.137" stroke="#4A2A69" stroke-width="0.445833" stroke-miterlimit="10"/>
<path d="M243.141 142.395L246.58 146.137" stroke="#4A2A69" stroke-width="0.445833" stroke-miterlimit="10"/>
<path d="M236.453 142.395L239.892 146.137" stroke="#4A2A69" stroke-width="0.445833" stroke-miterlimit="10"/>
<path d="M299.414 183.368C310.6 183.368 319.667 174.26 319.667 163.026C319.667 151.791 310.6 142.684 299.414 142.684C288.228 142.684 279.16 151.791 279.16 163.026C279.16 174.26 288.228 183.368 299.414 183.368Z" fill="#4F2D70"/>
<path d="M218.684 61.7941C198.43 47.3051 218.206 42.6994 230.244 42.2196C242.186 41.7398 237.504 33.1999 248.013 40.0126C258.522 46.8254 283.362 40.1086 277.916 53.1583C290.909 53.0624 283.648 82.6161 275.528 89.8126" fill="#734149"/>
<path d="M224.796 94.8986C201.103 92.9795 207.791 69.6628 219.637 79.4501C222.886 82.1368 225.943 87.7021 225.943 87.7021L224.796 94.8986Z" fill="#FFAC8C"/>
<path d="M254.606 120.037L242.09 124.931C238.269 126.466 234.161 126.85 230.148 126.274L221.741 125.027C218.397 124.547 215.627 122.34 214.194 119.27L210.85 111.593C209.704 108.907 209.417 106.028 209.99 103.149L220.595 52.6777L275.623 58.5309L271.515 97.3922L263.968 104.877L263.204 109.29C262.439 114.184 259.191 118.214 254.606 120.037Z" fill="#FFC0A8"/>
<path d="M220.594 74.1708C220.594 74.1708 223.652 69.2772 226.9 71.9639" stroke="#AD6666" stroke-width="0.445833" stroke-miterlimit="10"/>
<path d="M247.532 75.2274C249.156 73.98 251.449 73.3084 254.219 77.0505" stroke="#AD6666" stroke-width="0.445833" stroke-miterlimit="10"/>
<path d="M263.105 97.2009L259.475 96.0494C245.24 114.185 246.673 97.9685 240.559 97.3928C237.215 97.009 233.489 97.9685 224.509 98.5442C218.013 98.928 212.472 108.619 212.089 94.3223L211.898 94.4182L210.083 103.15C209.51 106.029 209.128 108.907 210.274 111.498L213.618 119.174C214.955 122.245 217.822 124.452 221.165 124.931L230.241 126.275C234.254 126.851 239.126 126.467 242.852 124.931L254.698 119.942C259.284 118.119 262.532 114.089 263.297 109.291L264.061 104.877L266.163 102.766L263.105 97.2009Z" fill="#734149"/>
<path d="M259.474 96.0492L263.105 97.4885L268.932 91.4434L273.04 89.6203L276.48 57.3798L216.579 51.0469C219.54 67.2631 241.705 55.9405 247.628 64.6723C253.551 73.4041 263.2 58.0515 266.448 70.4295C269.219 81.5602 259.474 96.0492 259.474 96.0492Z" fill="#734149"/>
<path d="M264.061 104.877C287.754 102.958 281.067 79.6413 269.22 89.4286C265.972 92.1153 262.915 97.6806 262.915 97.6806L264.061 104.877Z" fill="#FFC0A8"/>
<path d="M273.9 91.4434C265.11 97.6803 271.225 100.655 272.562 97.2006C273.709 94.0341 271.32 96.433 271.32 96.433" stroke="#AD6666" stroke-width="0.445833" stroke-miterlimit="10"/>
<path d="M132.795 155.349C130.502 153.621 129.547 151.702 129.356 148.92C129.165 145.657 129.738 141.339 126.012 139.708C124.197 138.941 122.382 139.324 120.758 140.188C120.567 140.284 120.28 140.38 120.089 140.476C109.676 147.672 119.42 170.03 133.082 168.878C135.757 168.686 141.489 166.191 142.54 163.984C145.024 159.091 136.235 157.843 132.795 155.349Z" fill="#FFC0A8"/>
<path d="M195.559 165.137H132.601C130.022 165.137 128.016 163.026 128.016 160.531V120.231C128.016 117.64 130.117 115.625 132.601 115.625H195.559C198.139 115.625 200.145 117.736 200.145 120.231V160.531C200.145 163.026 198.043 165.137 195.559 165.137Z" fill="#4A2A69"/>
<path d="M132.508 162.354C131.457 162.354 130.598 161.49 130.598 160.434V120.134C130.598 119.078 131.457 118.215 132.508 118.215H195.466C196.517 118.215 197.377 119.078 197.377 120.134V160.434C197.377 161.49 196.517 162.354 195.466 162.354H132.508Z" fill="url(#paint1_linear)"/>
<path d="M183.431 128.29V158.131H179.992V128.29C179.992 127.33 180.756 126.562 181.711 126.562C182.667 126.562 183.431 127.33 183.431 128.29Z" fill="white"/>
<path d="M171.392 140.475V158.131H167.953V140.475C167.953 139.516 168.717 138.748 169.673 138.748C170.533 138.748 171.392 139.516 171.392 140.475Z" fill="white"/>
<path d="M165.279 145.178V158.228H161.84V145.178C161.84 144.219 162.604 143.451 163.559 143.451C164.515 143.451 165.279 144.219 165.279 145.178Z" fill="white"/>
<path d="M153.146 151.126V158.13H149.707V151.126C149.707 150.166 150.471 149.398 151.427 149.398C152.382 149.398 153.146 150.166 153.146 151.126Z" fill="white"/>
<path d="M147.127 153.717V158.131H143.688V153.717C143.688 152.758 144.452 151.99 145.407 151.99C146.362 151.99 147.127 152.758 147.127 153.717Z" fill="white"/>
<path d="M159.26 152.374V158.131H155.82V152.374C155.82 151.414 156.585 150.646 157.54 150.646C158.495 150.646 159.26 151.414 159.26 152.374Z" fill="white"/>
<path d="M177.412 135.102V158.131H173.973V135.102C173.973 134.143 174.737 133.375 175.692 133.375C176.648 133.375 177.412 134.143 177.412 135.102Z" fill="white"/>
<path d="M141.395 158.131H186.678" stroke="#4A2A69" stroke-width="0.445833" stroke-miterlimit="10"/>
<path d="M135.947 132.609C136.521 133.281 136.616 134.24 136.043 134.816L123.432 145.275C122.477 146.139 120.853 145.947 119.802 144.795C118.655 143.548 118.751 141.725 119.897 140.957L133.941 132.321C134.514 131.746 135.374 131.938 135.947 132.609Z" fill="#FFC0A8"/>
<path d="M121.906 144.219L136.332 136.159C136.905 135.775 137.765 135.967 138.338 136.638C138.912 137.31 138.912 138.269 138.338 138.845L125.346 148.728" fill="#FFC0A8"/>
<path d="M123.242 146.81L138.623 141.053C139.292 140.765 140.056 141.053 140.534 141.82C141.012 142.588 140.821 143.548 140.152 143.931L125.822 151.8" fill="#FFC0A8"/>
<path d="M140.248 149.305C140.63 150.073 140.439 150.937 139.77 151.224L126.491 156.502C125.44 156.982 124.103 156.214 123.529 154.967C122.861 153.527 123.338 151.992 124.58 151.608L138.624 148.346C139.293 148.154 139.962 148.538 140.248 149.305Z" fill="#FFC0A8"/>
<path d="M319.093 168.304C313.36 201.12 285.369 246.411 285.369 246.411L259.383 237.391C259.383 237.391 265.115 190.086 281.069 155.062L319.093 168.304Z" fill="#FFC0A8"/>
<path d="M272.472 255.238C280.07 255.238 286.229 249.052 286.229 241.421C286.229 233.79 280.07 227.604 272.472 227.604C264.874 227.604 258.715 233.79 258.715 241.421C258.715 249.052 264.874 255.238 272.472 255.238Z" fill="#FFC0A8"/>
<path d="M299.508 183.561C310.694 183.561 319.762 174.454 319.762 163.219C319.762 151.984 310.694 142.877 299.508 142.877C288.322 142.877 279.255 151.984 279.255 163.219C279.255 174.454 288.322 183.561 299.508 183.561Z" fill="#4F2D70"/>
<path d="M308.199 201.984C298.741 200.449 283.933 196.707 269.316 187.687C272.374 176.748 276.195 165.234 280.972 154.967L318.995 168.208C317.18 178.859 313.072 190.758 308.199 201.984Z" fill="#4F2D70"/>
<path d="M217.633 172.718C220.881 166.865 213.334 154.103 206.359 157.941C206.359 157.941 190.309 142.492 186.488 145.179C182.667 147.866 199.576 161.203 199.576 161.203C192.984 165.809 191.934 170.607 193.08 174.253C194.322 178.379 200.627 182.793 206.264 183.273C209.894 183.656 216.295 177.707 217.633 172.718Z" fill="#FFC0A8"/>
<path d="M208.559 181.544L217.443 172.908C217.443 172.908 272.854 212.537 282.026 231.44L262.25 250.727C240.85 239.692 208.559 181.544 208.559 181.544Z" fill="#FFC0A8"/>
<path d="M223.27 177.227C237.791 187.973 274.572 216.376 282.024 231.44L223.27 177.227Z" fill="#FFC0A8"/>
<path d="M223.27 177.227C237.791 187.973 274.572 216.376 282.024 231.44" stroke="#AD6666" stroke-width="0.445833" stroke-miterlimit="10"/>
<path d="M255.659 224.244L251.551 233.84" stroke="#4A2A69" stroke-width="0.445833" stroke-miterlimit="10"/>
<path d="M249.924 216.568L245.816 226.164" stroke="#4A2A69" stroke-width="0.445833" stroke-miterlimit="10"/>
<path d="M244.192 208.891L240.18 218.486" stroke="#4A2A69" stroke-width="0.445833" stroke-miterlimit="10"/>
<path d="M238.557 201.119L234.449 210.81" stroke="#4A2A69" stroke-width="0.445833" stroke-miterlimit="10"/>
<path d="M272.472 255.236C280.07 255.236 286.229 249.05 286.229 241.419C286.229 233.788 280.07 227.602 272.472 227.602C264.874 227.602 258.715 233.788 258.715 241.419C258.715 249.05 264.874 255.236 272.472 255.236Z" fill="#FFC0A8"/>
<path d="M233.869 79.0664C233.869 79.0664 225.653 99.5045 235.875 94.9947" stroke="#AD6666" stroke-width="0.445833" stroke-miterlimit="10"/>
<path d="M224.129 82.2339C225.185 82.2339 226.04 80.7732 226.04 78.9714C226.04 77.1696 225.185 75.709 224.129 75.709C223.074 75.709 222.219 77.1696 222.219 78.9714C222.219 80.7732 223.074 82.2339 224.129 82.2339Z" fill="#4A2A69"/>
<path d="M249.446 84.6323C250.501 84.6323 251.357 83.1716 251.357 81.3699C251.357 79.5681 250.501 78.1074 249.446 78.1074C248.391 78.1074 247.535 79.5681 247.535 81.3699C247.535 83.1716 248.391 84.6323 249.446 84.6323Z" fill="#4A2A69"/>
<path d="M230.527 108.236C230.527 108.236 239.221 111.499 240.558 102.287" stroke="white" stroke-width="0.445833" stroke-miterlimit="10"/>
<g data-hidden-mb="true">
	<path xmlns="http://www.w3.org/2000/svg" d="M335.332 265.023H369.629V275.962H335.332V265.023Z" fill="url(#paint2_linear)"/>
	<path d="M335.332 265.023H369.629V275.962H335.332V265.023Z" fill="url(#paint3_linear)"/>
	<path d="M330.555 254.086H364.852V265.025H330.555V254.086Z" fill="url(#paint4_linear)"/>
	<path d="M330.555 254.086H364.852V265.025H330.555V254.086Z" fill="url(#paint5_linear)"/>
	<path d="M328.168 243.146H362.465V254.085H328.168V243.146Z" fill="url(#paint6_linear)"/>
	<path d="M328.168 243.146H362.465V254.085H328.168V243.146Z" fill="url(#paint7_linear)"/>
	<path d="M369.632 265.023H337.723" stroke="#4A2A69" stroke-width="0.445833" stroke-miterlimit="10"/>
	<path d="M362.559 254.086H330.555" stroke="#4A2A69" stroke-width="0.445833" stroke-miterlimit="10"/>
	<path d="M328.168 265.023H293.871V275.962H328.168V265.023Z" fill="url(#paint8_linear)"/>
	<path d="M328.168 265.023H293.871V275.962H328.168V265.023Z" fill="url(#paint9_linear)"/>
	<path d="M329.696 254.084H295.398V265.023H329.696V254.084Z" fill="url(#paint10_linear)"/>
	<path d="M328.167 265.023H296.258" stroke="#4A2A69" stroke-width="0.445833" stroke-miterlimit="10"/>
	<path d="M327.307 254.084H295.398" stroke="#4A2A69" stroke-width="0.445833" stroke-miterlimit="10"/>
	<path d="M350.711 265.023H316.414V275.962H350.711V265.023Z" fill="url(#paint11_linear)"/>
	<path d="M348.324 254.086H314.027V265.025H348.324V254.086Z" fill="url(#paint12_linear)"/>
	<path d="M350.711 243.146H316.414V254.085H350.711V243.146Z" fill="url(#paint13_linear)"/>
	<path d="M348.324 232.207H314.027V243.146H348.324V232.207Z" fill="url(#paint14_linear)"/>
	<path d="M353.102 221.27H318.804V232.208H353.102V221.27Z" fill="url(#paint15_linear)"/>
	<path d="M350.712 210.33H316.414V221.269H350.712V210.33Z" fill="url(#paint16_linear)"/>
	<path d="M316.414 265.023H348.322" stroke="#4A2A69" stroke-width="0.445833" stroke-miterlimit="10"/>
	<path d="M316.414 254.086H348.322" stroke="#4A2A69" stroke-width="0.445833" stroke-miterlimit="10"/>
	<path d="M316.414 243.146H348.322" stroke="#4A2A69" stroke-width="0.445833" stroke-miterlimit="10"/>
	<path d="M318.804 232.207H348.325" stroke="#4A2A69" stroke-width="0.445833" stroke-miterlimit="10"/>
	<path xmlns="http://www.w3.org/2000/svg" d="M318.804 221.27H350.713" stroke="#4A2A69" stroke-width="0.445833" stroke-miterlimit="10"/>
</g>
<path d="M127.637 85.3015C127.637 91.9223 122.383 96.3362 114.071 97.0079L113.02 102.477H108.052L109.103 97.0079C104.422 96.5281 100.218 95.0888 97.7344 93.1697L101.078 87.0287C103.658 88.9478 107.001 90.1952 110.441 90.579L112.16 82.231C107.575 80.8877 102.511 78.9686 102.511 73.0195C102.511 66.3987 107.861 61.9848 116.268 61.3131L117.319 55.8438H122.287L121.236 61.3131C124.771 61.6969 127.924 62.6565 130.312 64.0958L127.255 70.2368C125.153 68.7975 122.574 67.9339 119.899 67.6461L118.179 76.3778C122.669 77.8172 127.637 79.6403 127.637 85.3015ZM113.498 75.1304L114.931 68.0299C112.16 68.6056 110.536 70.1409 110.441 71.964C110.441 73.4033 111.683 74.3628 113.498 75.1304ZM119.612 86.5489C119.612 85.1096 118.466 84.246 116.746 83.5744L115.408 90.3871C118.083 89.9073 119.612 88.468 119.612 86.5489Z" fill="#FFCA5C" stroke="#4A2A69" stroke-width="0.445833" stroke-miterlimit="10"/>
<path d="M99.8338 52.87C99.8338 57.3798 96.299 60.3544 90.6624 60.8342L89.8981 64.4804H86.5544L87.3186 60.8342C84.166 60.5463 81.2999 59.4908 79.6758 58.2434L81.8731 54.1174C83.6883 55.4607 85.8856 56.2284 88.1785 56.5162L89.3249 50.855C86.1722 49.8954 82.8285 48.648 82.8285 44.618C82.8285 40.1081 86.4588 37.1336 92.1909 36.7498L92.9552 33.1035H96.299L95.5347 36.8457C97.9231 37.0376 100.12 37.7093 101.649 38.7648L99.6427 42.8908C98.2097 41.9313 96.4901 41.3555 94.6749 41.1636L93.4329 46.9209C96.4901 47.7844 99.8338 49.0318 99.8338 52.87ZM90.1847 45.9613L91.1401 41.1636C89.2293 41.5474 88.1785 42.6029 88.1785 43.8503C88.1785 44.9058 89.0383 45.4816 90.1847 45.9613ZM94.3883 53.7336C94.3883 52.774 93.624 52.1983 92.4776 51.7185L91.5222 56.3243C93.3374 56.0365 94.3883 55.0769 94.3883 53.7336Z" fill="#FFCA5C" stroke="#4A2A69" stroke-width="0.445833" stroke-miterlimit="10"/>
<path d="M64.2948 220.405L77.9564 217.719L80.6314 203.997L50.4421 173.676L34.1055 190.084L64.2948 220.405ZM71.3644 206.108C72.7019 207.451 72.7019 209.658 71.3644 211.002C70.0269 212.345 67.8296 212.345 66.4921 211.002C65.1546 209.658 65.1546 207.451 66.4921 206.108C67.734 204.765 69.9314 204.765 71.3644 206.108Z" fill="url(#paint17_linear)"/>
<path xmlns="http://www.w3.org/2000/svg" data-hidden-mb="true" d="M309.246 61.0246C309.246 53.3483 313.832 47.1113 321.379 47.1113C326.92 47.1113 330.646 50.6616 330.646 56.7067C330.646 64.383 326.156 70.62 318.513 70.62C312.972 70.62 309.246 67.0697 309.246 61.0246ZM347.078 47.5911H354.721L317.653 90.2905H309.915L347.078 47.5911ZM324.436 57.0905C324.436 53.6362 322.908 52.1009 320.806 52.1009C316.889 52.1009 315.36 56.8986 315.36 60.6408C315.36 64.0951 316.889 65.6304 318.991 65.6304C322.908 65.6304 324.436 60.8327 324.436 57.0905ZM334.085 81.079C334.085 73.4027 338.671 67.2616 346.218 67.2616C351.76 67.2616 355.485 70.8119 355.485 76.857C355.485 84.5333 350.995 90.6743 343.352 90.6743C337.811 90.7703 334.085 87.22 334.085 81.079ZM349.371 77.2408C349.371 73.7865 347.843 72.2512 345.741 72.2512C341.824 72.2512 340.2 77.0489 340.2 80.887C340.2 84.3414 341.728 85.8766 343.926 85.8766C347.747 85.7807 349.371 80.983 349.371 77.2408Z" fill="url(#paint18_linear)"/>
<path d="M358.64 304.941H210.941V315.304H358.64V304.941Z" stroke="#4A2A69" stroke-width="0.445833" stroke-miterlimit="10"/>
<path d="M392.365 120.135C398.48 139.421 323.675 180.778 225.178 212.442C126.68 244.107 41.8448 254.278 35.7305 234.991" stroke="#4A2A69" stroke-width="0.445833" stroke-miterlimit="10"/>
<path data-hidden-mb="true" d="M49.3945 278.744H385.967" stroke="#4F2D70" stroke-width="6.24167" stroke-miterlimit="10"/>
<defs>
<linearGradient id="paint0_linear" x1="402.611" y1="342.55" x2="162.124" y2="37.372" gradientUnits="userSpaceOnUse">
<stop stop-color="#C84ECB"/>
<stop offset="1" stop-color="#FF8392"/>
</linearGradient>
<linearGradient id="paint1_linear" x1="147.043" y1="125.267" x2="186.458" y2="161.771" gradientUnits="userSpaceOnUse">
<stop stop-color="#9DD0FF"/>
<stop offset="1" stop-color="#99A3FF"/>
</linearGradient>
<linearGradient id="paint2_linear" x1="335.327" y1="270.491" x2="369.651" y2="270.491" gradientUnits="userSpaceOnUse">
<stop stop-color="#FF8300"/>
<stop offset="0.0440214" stop-color="#FF8504"/>
<stop offset="0.8966" stop-color="#FFAE4C"/>
</linearGradient>
<linearGradient id="paint3_linear" x1="335.277" y1="270.49" x2="369.601" y2="270.49" gradientUnits="userSpaceOnUse">
<stop stop-color="#FFC384"/>
<stop offset="1" stop-color="#FFA333"/>
</linearGradient>
<linearGradient id="paint4_linear" x1="330.482" y1="259.552" x2="364.806" y2="259.552" gradientUnits="userSpaceOnUse">
<stop stop-color="#FF8300"/>
<stop offset="0.0440214" stop-color="#FF8504"/>
<stop offset="0.8966" stop-color="#FFAE4C"/>
</linearGradient>
<linearGradient id="paint5_linear" x1="330.499" y1="259.552" x2="364.823" y2="259.552" gradientUnits="userSpaceOnUse">
<stop stop-color="#FFC384"/>
<stop offset="1" stop-color="#FFA333"/>
</linearGradient>
<linearGradient id="paint6_linear" x1="328.116" y1="248.611" x2="362.44" y2="248.611" gradientUnits="userSpaceOnUse">
<stop stop-color="#FF8300"/>
<stop offset="0.0440214" stop-color="#FF8504"/>
<stop offset="0.8966" stop-color="#FFAE4C"/>
</linearGradient>
<linearGradient id="paint7_linear" x1="328.112" y1="248.613" x2="362.436" y2="248.613" gradientUnits="userSpaceOnUse">
<stop stop-color="#FFC384"/>
<stop offset="1" stop-color="#FFA333"/>
</linearGradient>
<linearGradient id="paint8_linear" x1="328.201" y1="270.491" x2="293.877" y2="270.491" gradientUnits="userSpaceOnUse">
<stop stop-color="#FF8300"/>
<stop offset="0.0440214" stop-color="#FF8504"/>
<stop offset="0.8966" stop-color="#FFAE4C"/>
</linearGradient>
<linearGradient id="paint9_linear" x1="328.224" y1="270.49" x2="293.9" y2="270.49" gradientUnits="userSpaceOnUse">
<stop stop-color="#FFC384"/>
<stop offset="1" stop-color="#FFA333"/>
</linearGradient>
<linearGradient id="paint10_linear" x1="329.751" y1="259.55" x2="295.427" y2="259.55" gradientUnits="userSpaceOnUse">
<stop stop-color="#FFC384"/>
<stop offset="1" stop-color="#FFA333"/>
</linearGradient>
<linearGradient id="paint11_linear" x1="316.414" y1="270.493" x2="350.712" y2="270.493" gradientUnits="userSpaceOnUse">
<stop stop-color="#FFE188"/>
<stop offset="1" stop-color="#FFA57E"/>
</linearGradient>
<linearGradient id="paint12_linear" x1="314.028" y1="259.556" x2="348.325" y2="259.556" gradientUnits="userSpaceOnUse">
<stop stop-color="#FFE188"/>
<stop offset="1" stop-color="#FFA57E"/>
</linearGradient>
<linearGradient id="paint13_linear" x1="316.414" y1="248.617" x2="350.712" y2="248.617" gradientUnits="userSpaceOnUse">
<stop stop-color="#FFE188"/>
<stop offset="1" stop-color="#FFA57E"/>
</linearGradient>
<linearGradient id="paint14_linear" x1="314.028" y1="237.677" x2="348.325" y2="237.677" gradientUnits="userSpaceOnUse">
<stop stop-color="#FFE188"/>
<stop offset="1" stop-color="#FFA57E"/>
</linearGradient>
<linearGradient id="paint15_linear" x1="318.805" y1="226.74" x2="353.102" y2="226.74" gradientUnits="userSpaceOnUse">
<stop stop-color="#FFE188"/>
<stop offset="1" stop-color="#FFA57E"/>
</linearGradient>
<linearGradient id="paint16_linear" x1="316.415" y1="215.8" x2="350.712" y2="215.8" gradientUnits="userSpaceOnUse">
<stop stop-color="#FFE188"/>
<stop offset="1" stop-color="#FFA57E"/>
</linearGradient>
<linearGradient id="paint17_linear" x1="34.1055" y1="191.607" x2="80.2945" y2="195.552" gradientUnits="userSpaceOnUse">
<stop stop-color="#DC304B"/>
<stop offset="1" stop-color="#D82642"/>
</linearGradient>
<linearGradient id="paint18_linear" x1="309.246" y1="63.8281" x2="355.105" y2="68.0033" gradientUnits="userSpaceOnUse">
<stop stop-color="#DC304B"/>
<stop offset="1" stop-color="#D82642"/>
</linearGradient>
</defs>
</svg>
